<svg width="272" height="195" viewBox="0 0 272 195" fill="none" xmlns="http://www.w3.org/2000/svg">
<path d="M59.93 18.216C58.658 18.216 57.566 17.946 56.654 17.406C55.742 16.854 55.04 16.092 54.548 15.12C54.056 14.136 53.81 13.002 53.81 11.718C53.81 10.434 54.056 9.3 54.548 8.316C55.04 7.332 55.742 6.564 56.654 6.012C57.566 5.46 58.658 5.184 59.93 5.184C61.442 5.184 62.678 5.562 63.638 6.318C64.61 7.062 65.216 8.112 65.456 9.468H62.918C62.762 8.784 62.426 8.25 61.91 7.866C61.406 7.47 60.734 7.272 59.894 7.272C58.73 7.272 57.818 7.668 57.158 8.46C56.498 9.252 56.168 10.338 56.168 11.718C56.168 13.098 56.498 14.184 57.158 14.976C57.818 15.756 58.73 16.146 59.894 16.146C60.734 16.146 61.406 15.966 61.91 15.606C62.426 15.234 62.762 14.724 62.918 14.076H65.456C65.216 15.372 64.61 16.386 63.638 17.118C62.678 17.85 61.442 18.216 59.93 18.216ZM71.7255 18.216C70.8615 18.216 70.0815 18.018 69.3855 17.622C68.7015 17.226 68.1555 16.68 67.7475 15.984C67.3515 15.276 67.1535 14.46 67.1535 13.536C67.1535 12.612 67.3575 11.802 67.7655 11.106C68.1735 10.398 68.7195 9.846 69.4035 9.45C70.0995 9.054 70.8795 8.856 71.7435 8.856C72.5955 8.856 73.3635 9.054 74.0475 9.45C74.7435 9.846 75.2895 10.398 75.6855 11.106C76.0935 11.802 76.2975 12.612 76.2975 13.536C76.2975 14.46 76.0935 15.276 75.6855 15.984C75.2895 16.68 74.7435 17.226 74.0475 17.622C73.3515 18.018 72.5775 18.216 71.7255 18.216ZM71.7255 16.218C72.3255 16.218 72.8475 15.996 73.2915 15.552C73.7355 15.096 73.9575 14.424 73.9575 13.536C73.9575 12.648 73.7355 11.982 73.2915 11.538C72.8475 11.082 72.3315 10.854 71.7435 10.854C71.1315 10.854 70.6035 11.082 70.1595 11.538C69.7275 11.982 69.5115 12.648 69.5115 13.536C69.5115 14.424 69.7275 15.096 70.1595 15.552C70.6035 15.996 71.1255 16.218 71.7255 16.218ZM78.3575 18V9.072H80.4095L80.6255 10.746C80.9495 10.17 81.3875 9.714 81.9395 9.378C82.5035 9.03 83.1635 8.856 83.9195 8.856V11.286H83.2715C82.7675 11.286 82.3175 11.364 81.9215 11.52C81.5255 11.676 81.2135 11.946 80.9855 12.33C80.7695 12.714 80.6615 13.248 80.6615 13.932V18H78.3575ZM85.4942 18V9.072H87.5462L87.7622 10.746C88.0862 10.17 88.5242 9.714 89.0762 9.378C89.6402 9.03 90.3002 8.856 91.0562 8.856V11.286H90.4082C89.9042 11.286 89.4542 11.364 89.0582 11.52C88.6622 11.676 88.3502 11.946 88.1222 12.33C87.9062 12.714 87.7982 13.248 87.7982 13.932V18H85.4942ZM96.8107 18.216C95.9107 18.216 95.1127 18.024 94.4167 17.64C93.7207 17.256 93.1747 16.716 92.7787 16.02C92.3827 15.324 92.1847 14.52 92.1847 13.608C92.1847 12.684 92.3767 11.862 92.7607 11.142C93.1567 10.422 93.6967 9.864 94.3807 9.468C95.0767 9.06 95.8927 8.856 96.8287 8.856C97.7047 8.856 98.4787 9.048 99.1507 9.432C99.8227 9.816 100.345 10.344 100.717 11.016C101.101 11.676 101.293 12.414 101.293 13.23C101.293 13.362 101.287 13.5 101.275 13.644C101.275 13.788 101.269 13.938 101.257 14.094H94.4707C94.5187 14.79 94.7587 15.336 95.1907 15.732C95.6347 16.128 96.1687 16.326 96.7927 16.326C97.2607 16.326 97.6507 16.224 97.9627 16.02C98.2867 15.804 98.5267 15.528 98.6827 15.192H101.023C100.855 15.756 100.573 16.272 100.177 16.74C99.7927 17.196 99.3127 17.556 98.7367 17.82C98.1727 18.084 97.5307 18.216 96.8107 18.216ZM96.8287 10.728C96.2647 10.728 95.7667 10.89 95.3347 11.214C94.9027 11.526 94.6267 12.006 94.5067 12.654H98.9527C98.9167 12.066 98.7007 11.598 98.3047 11.25C97.9087 10.902 97.4167 10.728 96.8287 10.728ZM107.335 18.216C106.495 18.216 105.745 18.012 105.085 17.604C104.425 17.196 103.903 16.638 103.519 15.93C103.135 15.222 102.943 14.418 102.943 13.518C102.943 12.618 103.135 11.82 103.519 11.124C103.903 10.416 104.425 9.864 105.085 9.468C105.745 9.06 106.495 8.856 107.335 8.856C108.007 8.856 108.595 8.982 109.099 9.234C109.603 9.486 110.011 9.84 110.323 10.296V5.04H112.627V18H110.575L110.323 16.722C110.035 17.118 109.651 17.466 109.171 17.766C108.703 18.066 108.091 18.216 107.335 18.216ZM107.821 16.2C108.565 16.2 109.171 15.954 109.639 15.462C110.119 14.958 110.359 14.316 110.359 13.536C110.359 12.756 110.119 12.12 109.639 11.628C109.171 11.124 108.565 10.872 107.821 10.872C107.089 10.872 106.483 11.118 106.003 11.61C105.523 12.102 105.283 12.738 105.283 13.518C105.283 14.298 105.523 14.94 106.003 15.444C106.483 15.948 107.089 16.2 107.821 16.2ZM119.257 18.216C118.393 18.216 117.613 18.018 116.917 17.622C116.233 17.226 115.687 16.68 115.279 15.984C114.883 15.276 114.685 14.46 114.685 13.536C114.685 12.612 114.889 11.802 115.297 11.106C115.705 10.398 116.251 9.846 116.935 9.45C117.631 9.054 118.411 8.856 119.275 8.856C120.127 8.856 120.895 9.054 121.579 9.45C122.275 9.846 122.821 10.398 123.217 11.106C123.625 11.802 123.829 12.612 123.829 13.536C123.829 14.46 123.625 15.276 123.217 15.984C122.821 16.68 122.275 17.226 121.579 17.622C120.883 18.018 120.109 18.216 119.257 18.216ZM119.257 16.218C119.857 16.218 120.379 15.996 120.823 15.552C121.267 15.096 121.489 14.424 121.489 13.536C121.489 12.648 121.267 11.982 120.823 11.538C120.379 11.082 119.863 10.854 119.275 10.854C118.663 10.854 118.135 11.082 117.691 11.538C117.259 11.982 117.043 12.648 117.043 13.536C117.043 14.424 117.259 15.096 117.691 15.552C118.135 15.996 118.657 16.218 119.257 16.218ZM125.889 18V9.072H127.941L128.157 10.746C128.481 10.17 128.919 9.714 129.471 9.378C130.035 9.03 130.695 8.856 131.451 8.856V11.286H130.803C130.299 11.286 129.849 11.364 129.453 11.52C129.057 11.676 128.745 11.946 128.517 12.33C128.301 12.714 128.193 13.248 128.193 13.932V18H125.889ZM136.103 18.216C135.335 18.216 134.705 18.096 134.213 17.856C133.721 17.604 133.355 17.274 133.115 16.866C132.875 16.458 132.755 16.008 132.755 15.516C132.755 14.688 133.079 14.016 133.727 13.5C134.375 12.984 135.347 12.726 136.643 12.726H138.911V12.51C138.911 11.898 138.737 11.448 138.389 11.16C138.041 10.872 137.609 10.728 137.093 10.728C136.625 10.728 136.217 10.842 135.869 11.07C135.521 11.286 135.305 11.61 135.221 12.042H132.971C133.031 11.394 133.247 10.83 133.619 10.35C134.003 9.87 134.495 9.504 135.095 9.252C135.695 8.988 136.367 8.856 137.111 8.856C138.383 8.856 139.385 9.174 140.117 9.81C140.849 10.446 141.215 11.346 141.215 12.51V18H139.253L139.037 16.56C138.773 17.04 138.401 17.436 137.921 17.748C137.453 18.06 136.847 18.216 136.103 18.216ZM136.625 16.416C137.285 16.416 137.795 16.2 138.155 15.768C138.527 15.336 138.761 14.802 138.857 14.166H136.895C136.283 14.166 135.845 14.28 135.581 14.508C135.317 14.724 135.185 14.994 135.185 15.318C135.185 15.666 135.317 15.936 135.581 16.128C135.845 16.32 136.193 16.416 136.625 16.416ZM147.104 18.216C146.312 18.216 145.616 18.09 145.016 17.838C144.416 17.574 143.936 17.214 143.576 16.758C143.216 16.302 143 15.774 142.928 15.174H145.25C145.322 15.522 145.514 15.822 145.826 16.074C146.15 16.314 146.564 16.434 147.068 16.434C147.572 16.434 147.938 16.332 148.166 16.128C148.406 15.924 148.526 15.69 148.526 15.426C148.526 15.042 148.358 14.784 148.022 14.652C147.686 14.508 147.218 14.37 146.618 14.238C146.234 14.154 145.844 14.052 145.448 13.932C145.052 13.812 144.686 13.662 144.35 13.482C144.026 13.29 143.762 13.05 143.558 12.762C143.354 12.462 143.252 12.096 143.252 11.664C143.252 10.872 143.564 10.206 144.188 9.666C144.824 9.126 145.712 8.856 146.852 8.856C147.908 8.856 148.748 9.102 149.372 9.594C150.008 10.086 150.386 10.764 150.506 11.628H148.328C148.196 10.968 147.698 10.638 146.834 10.638C146.402 10.638 146.066 10.722 145.826 10.89C145.598 11.058 145.484 11.268 145.484 11.52C145.484 11.784 145.658 11.994 146.006 12.15C146.354 12.306 146.816 12.45 147.392 12.582C148.016 12.726 148.586 12.888 149.102 13.068C149.63 13.236 150.05 13.494 150.362 13.842C150.674 14.178 150.83 14.664 150.83 15.3C150.842 15.852 150.698 16.35 150.398 16.794C150.098 17.238 149.666 17.586 149.102 17.838C148.538 18.09 147.872 18.216 147.104 18.216Z" fill="#FF9536"/>
<path d="M41 44C41 39.5817 44.5817 36 49 36H142V75H41V44Z" fill="white"/>
<path d="M54.2784 61H58.7386C61.4432 61 62.6648 59.6534 62.6648 57.8693C62.6648 56.0682 61.4034 55.0511 60.25 54.9886V54.875C61.3182 54.6023 62.2102 53.875 62.2102 52.4205C62.2102 50.6989 61.017 49.3636 58.5398 49.3636H54.2784V61ZM56.0341 59.4943V55.767H58.6307C60.0398 55.767 60.9205 56.6761 60.9205 57.7841C60.9205 58.7614 60.2557 59.4943 58.5682 59.4943H56.0341ZM56.0341 54.3977V50.858H58.4318C59.8239 50.858 60.4886 51.5909 60.4886 52.5568C60.4886 53.6818 59.5682 54.3977 58.3864 54.3977H56.0341ZM64.2908 61H65.9897V52.2727H64.2908V61ZM65.1488 50.9261C65.734 50.9261 66.2226 50.4716 66.2226 49.9148C66.2226 49.358 65.734 48.8977 65.1488 48.8977C64.5578 48.8977 64.0749 49.358 64.0749 49.9148C64.0749 50.4716 64.5578 50.9261 65.1488 50.9261ZM72.029 52.2727H70.2393V50.1818H68.5404V52.2727H67.262V53.6364H68.5404V58.7898C68.5347 60.375 69.7449 61.142 71.0859 61.1136C71.6256 61.108 71.9893 61.0057 72.1881 60.9318L71.8813 59.5284C71.7677 59.5511 71.5574 59.6023 71.2847 59.6023C70.7336 59.6023 70.2393 59.4205 70.2393 58.4375V53.6364H72.029V52.2727ZM73.5883 61H75.2872V55.6705C75.2872 54.5284 76.1678 53.7045 77.3724 53.7045C77.7247 53.7045 78.1224 53.767 78.2588 53.8068V52.1818C78.0883 52.1591 77.7531 52.142 77.5372 52.142C76.5144 52.142 75.6394 52.7216 75.3213 53.6591H75.2303V52.2727H73.5883V61ZM81.8706 61.1932C83.3137 61.1932 84.1262 60.4602 84.4501 59.8068H84.5183V61H86.1774V55.2045C86.1774 52.6648 84.1774 52.1591 82.791 52.1591C81.2115 52.1591 79.7569 52.7955 79.1887 54.3864L80.7853 54.75C81.0353 54.1307 81.6717 53.5341 82.8137 53.5341C83.9103 53.5341 84.4728 54.108 84.4728 55.0966V55.1364C84.4728 55.7557 83.8365 55.7443 82.2683 55.9261C80.6149 56.1193 78.9217 56.5511 78.9217 58.5341C78.9217 60.25 80.2115 61.1932 81.8706 61.1932ZM82.2399 59.8295C81.2797 59.8295 80.5865 59.3977 80.5865 58.5568C80.5865 57.6477 81.3933 57.3239 82.3762 57.1932C82.9274 57.1193 84.2342 56.9716 84.4785 56.7273V57.8523C84.4785 58.8864 83.6547 59.8295 82.2399 59.8295ZM91.3872 61.1705C92.9781 61.1705 93.6031 60.1989 93.9099 59.642H94.052V61H95.7111V49.3636H94.0122V53.6875H93.9099C93.6031 53.1477 93.0236 52.1591 91.3986 52.1591C89.2906 52.1591 87.7395 53.8239 87.7395 56.6534C87.7395 59.4773 89.2679 61.1705 91.3872 61.1705ZM91.7622 59.7216C90.2452 59.7216 89.4554 58.3864 89.4554 56.6364C89.4554 54.9034 90.2281 53.6023 91.7622 53.6023C93.2452 53.6023 94.0406 54.8125 94.0406 56.6364C94.0406 58.4716 93.2281 59.7216 91.7622 59.7216ZM101.577 61.1761C103.481 61.1761 104.827 60.2386 105.214 58.8182L103.606 58.5284C103.299 59.3523 102.56 59.7727 101.594 59.7727C100.14 59.7727 99.1624 58.8295 99.1169 57.1477H105.321V56.5455C105.321 53.392 103.435 52.1591 101.458 52.1591C99.026 52.1591 97.4238 54.0114 97.4238 56.6932C97.4238 59.4034 99.0033 61.1761 101.577 61.1761ZM99.1226 55.875C99.1908 54.6364 100.089 53.5625 101.469 53.5625C102.787 53.5625 103.651 54.5398 103.657 55.875H99.1226Z" fill="#B5B0AC"/>
<rect width="101" height="39" transform="translate(41 76)" fill="white"/>
<path d="M54.2784 101H58.7386C61.4432 101 62.6648 99.6534 62.6648 97.8693C62.6648 96.0682 61.4034 95.0511 60.25 94.9886V94.875C61.3182 94.6023 62.2102 93.875 62.2102 92.4205C62.2102 90.6989 61.017 89.3636 58.5398 89.3636H54.2784V101ZM56.0341 99.4943V95.767H58.6307C60.0398 95.767 60.9205 96.6761 60.9205 97.7841C60.9205 98.7614 60.2557 99.4943 58.5682 99.4943H56.0341ZM56.0341 94.3977V90.858H58.4318C59.8239 90.858 60.4886 91.5909 60.4886 92.5568C60.4886 93.6818 59.5682 94.3977 58.3864 94.3977H56.0341ZM64.2908 101H65.9897V92.2727H64.2908V101ZM65.1488 90.9261C65.734 90.9261 66.2226 90.4716 66.2226 89.9148C66.2226 89.358 65.734 88.8977 65.1488 88.8977C64.5578 88.8977 64.0749 89.358 64.0749 89.9148C64.0749 90.4716 64.5578 90.9261 65.1488 90.9261ZM72.029 92.2727H70.2393V90.1818H68.5404V92.2727H67.262V93.6364H68.5404V98.7898C68.5347 100.375 69.7449 101.142 71.0859 101.114C71.6256 101.108 71.9893 101.006 72.1881 100.932L71.8813 99.5284C71.7677 99.5511 71.5574 99.6023 71.2847 99.6023C70.7336 99.6023 70.2393 99.4205 70.2393 98.4375V93.6364H72.029V92.2727ZM73.5883 104.273H75.2872V99.642H75.3894C75.6963 100.199 76.3213 101.17 77.9122 101.17C80.0258 101.17 81.5599 99.4773 81.5599 96.6534C81.5599 93.8239 80.0031 92.1591 77.8951 92.1591C76.2758 92.1591 75.6906 93.1477 75.3894 93.6875H75.2474V92.2727H73.5883V104.273ZM75.2531 96.6364C75.2531 94.8125 76.0485 93.6023 77.5315 93.6023C79.0713 93.6023 79.844 94.9034 79.844 96.6364C79.844 98.3864 79.0485 99.7216 77.5315 99.7216C76.0713 99.7216 75.2531 98.4716 75.2531 96.6364ZM83.1433 101H84.8422V95.6705C84.8422 94.5284 85.7228 93.7045 86.9274 93.7045C87.2797 93.7045 87.6774 93.767 87.8137 93.8068V92.1818C87.6433 92.1591 87.3081 92.142 87.0922 92.142C86.0694 92.142 85.1944 92.7216 84.8762 93.6591H84.7853V92.2727H83.1433V101ZM92.4128 101.176C94.3162 101.176 95.6628 100.239 96.0491 98.8182L94.4412 98.5284C94.1344 99.3523 93.3957 99.7727 92.4298 99.7727C90.9753 99.7727 89.998 98.8295 89.9526 97.1477H96.1571V96.5455C96.1571 93.392 94.2707 92.1591 92.2935 92.1591C89.8616 92.1591 88.2594 94.0114 88.2594 96.6932C88.2594 99.4034 89.8389 101.176 92.4128 101.176ZM89.9582 95.875C90.0264 94.6364 90.9241 93.5625 92.3048 93.5625C93.623 93.5625 94.4866 94.5398 94.4923 95.875H89.9582ZM101.398 101.176C103.461 101.176 104.796 99.9375 104.983 98.2386H103.33C103.114 99.1818 102.381 99.7386 101.41 99.7386C99.972 99.7386 99.0459 98.5398 99.0459 96.6364C99.0459 94.767 99.9891 93.5909 101.41 93.5909C102.489 93.5909 103.148 94.2727 103.33 95.0909H104.983C104.802 93.3295 103.364 92.1591 101.381 92.1591C98.9209 92.1591 97.33 94.0114 97.33 96.6761C97.33 99.3068 98.8641 101.176 101.398 101.176ZM110.156 101.176C112.617 101.176 114.224 99.375 114.224 96.6761C114.224 93.9602 112.617 92.1591 110.156 92.1591C107.696 92.1591 106.088 93.9602 106.088 96.6761C106.088 99.375 107.696 101.176 110.156 101.176ZM110.162 99.75C108.554 99.75 107.804 98.3466 107.804 96.6705C107.804 95 108.554 93.5795 110.162 93.5795C111.759 93.5795 112.509 95 112.509 96.6705C112.509 98.3466 111.759 99.75 110.162 99.75Z" fill="#B5B0AC"/>
<rect width="101" height="39" transform="translate(41 116)" fill="white"/>
<path d="M63.6705 129.364H61.9318V137.909H61.8239L55.9034 129.364H54.2784V141H56.0341V132.466H56.142L62.0568 141H63.6705V129.364ZM69.4513 141.176C71.9115 141.176 73.5195 139.375 73.5195 136.676C73.5195 133.96 71.9115 132.159 69.4513 132.159C66.9911 132.159 65.3831 133.96 65.3831 136.676C65.3831 139.375 66.9911 141.176 69.4513 141.176ZM69.457 139.75C67.849 139.75 67.099 138.347 67.099 136.67C67.099 135 67.849 133.58 69.457 133.58C71.0536 133.58 71.8036 135 71.8036 136.67C71.8036 138.347 71.0536 139.75 69.457 139.75ZM82.2492 132.273H80.4253L78.2208 138.989H78.1299L75.9197 132.273H74.0958L77.2663 141H79.0844L82.2492 132.273ZM85.7999 141.193C87.2431 141.193 88.0556 140.46 88.3795 139.807H88.4477V141H90.1068V135.205C90.1068 132.665 88.1068 132.159 86.7204 132.159C85.1409 132.159 83.6863 132.795 83.1181 134.386L84.7147 134.75C84.9647 134.131 85.6011 133.534 86.7431 133.534C87.8397 133.534 88.4022 134.108 88.4022 135.097V135.136C88.4022 135.756 87.7659 135.744 86.1977 135.926C84.5443 136.119 82.8511 136.551 82.8511 138.534C82.8511 140.25 84.1409 141.193 85.7999 141.193ZM86.1693 139.83C85.209 139.83 84.5159 139.398 84.5159 138.557C84.5159 137.648 85.3227 137.324 86.3056 137.193C86.8568 137.119 88.1636 136.972 88.4079 136.727V137.852C88.4079 138.886 87.584 139.83 86.1693 139.83ZM95.3166 141.17C96.9075 141.17 97.5325 140.199 97.8393 139.642H97.9814V141H99.6405V129.364H97.9416V133.688H97.8393C97.5325 133.148 96.953 132.159 95.328 132.159C93.22 132.159 91.6689 133.824 91.6689 136.653C91.6689 139.477 93.1973 141.17 95.3166 141.17ZM95.6916 139.722C94.1745 139.722 93.3848 138.386 93.3848 136.636C93.3848 134.903 94.1575 133.602 95.6916 133.602C97.1745 133.602 97.97 134.812 97.97 136.636C97.97 138.472 97.1575 139.722 95.6916 139.722ZM104.285 141.193C105.728 141.193 106.541 140.46 106.864 139.807H106.933V141H108.592V135.205C108.592 132.665 106.592 132.159 105.205 132.159C103.626 132.159 102.171 132.795 101.603 134.386L103.2 134.75C103.45 134.131 104.086 133.534 105.228 133.534C106.325 133.534 106.887 134.108 106.887 135.097V135.136C106.887 135.756 106.251 135.744 104.683 135.926C103.029 136.119 101.336 136.551 101.336 138.534C101.336 140.25 102.626 141.193 104.285 141.193ZM104.654 139.83C103.694 139.83 103.001 139.398 103.001 138.557C103.001 137.648 103.808 137.324 104.791 137.193C105.342 137.119 106.649 136.972 106.893 136.727V137.852C106.893 138.886 106.069 139.83 104.654 139.83ZM111.875 132.273H110.012L112.694 136.636L109.978 141H111.841L113.802 137.739L115.768 141H117.625L114.881 136.636L117.603 132.273H115.745L113.802 135.67L111.875 132.273Z" fill="#B5B0AC"/>
<path d="M41 156H142V195H49C44.5817 195 41 191.418 41 187V156Z" fill="white"/>
<path d="M63.9432 173.148C63.5455 170.659 61.5966 169.205 59.1364 169.205C56.125 169.205 53.9034 171.46 53.9034 175.182C53.9034 178.903 56.1136 181.159 59.1364 181.159C61.6932 181.159 63.5625 179.557 63.9432 177.256L62.1705 177.25C61.8693 178.739 60.6193 179.557 59.1477 179.557C57.1534 179.557 55.6477 178.028 55.6477 175.182C55.6477 172.358 57.1477 170.807 59.1534 170.807C60.6364 170.807 61.8807 171.642 62.1705 173.148H63.9432ZM69.2638 181.176C71.724 181.176 73.332 179.375 73.332 176.676C73.332 173.96 71.724 172.159 69.2638 172.159C66.8036 172.159 65.1956 173.96 65.1956 176.676C65.1956 179.375 66.8036 181.176 69.2638 181.176ZM69.2695 179.75C67.6615 179.75 66.9115 178.347 66.9115 176.67C66.9115 175 67.6615 173.58 69.2695 173.58C70.8661 173.58 71.6161 175 71.6161 176.67C71.6161 178.347 70.8661 179.75 69.2695 179.75ZM74.9083 181H76.6072V172.273H74.9083V181ZM75.7663 170.926C76.3515 170.926 76.8401 170.472 76.8401 169.915C76.8401 169.358 76.3515 168.898 75.7663 168.898C75.1753 168.898 74.6924 169.358 74.6924 169.915C74.6924 170.472 75.1753 170.926 75.7663 170.926ZM80.2715 175.818C80.2715 174.426 81.1238 173.631 82.3056 173.631C83.459 173.631 84.1579 174.386 84.1579 175.653V181H85.8568V175.449C85.8568 173.29 84.6693 172.159 82.8852 172.159C81.5727 172.159 80.7147 172.767 80.3113 173.693H80.2034V172.273H78.5727V181H80.2715V175.818ZM91.5765 181.176C93.4799 181.176 94.8265 180.239 95.2129 178.818L93.6049 178.528C93.2981 179.352 92.5595 179.773 91.5936 179.773C90.139 179.773 89.1618 178.83 89.1163 177.148H95.3209V176.545C95.3209 173.392 93.4345 172.159 91.4572 172.159C89.0254 172.159 87.4231 174.011 87.4231 176.693C87.4231 179.403 89.0027 181.176 91.5765 181.176ZM89.122 175.875C89.1902 174.636 90.0879 173.562 91.4686 173.562C92.7868 173.562 93.6504 174.54 93.6561 175.875H89.122ZM98.0236 172.273H96.1599L98.8418 176.636L96.1259 181H97.9895L99.9497 177.739L101.916 181H103.774L101.029 176.636L103.751 172.273H101.893L99.9497 175.67L98.0236 172.273ZM109.249 172.273H107.459V170.182H105.76V172.273H104.482V173.636H105.76V178.79C105.755 180.375 106.965 181.142 108.306 181.114C108.846 181.108 109.209 181.006 109.408 180.932L109.101 179.528C108.988 179.551 108.777 179.602 108.505 179.602C107.954 179.602 107.459 179.42 107.459 178.438V173.636H109.249V172.273Z" fill="#B5B0AC"/>
<path d="M143 36H223C227.418 36 231 39.5817 231 44V75H143V36Z" fill="white"/>
<path d="M167.356 62.2727H168.171V61.1641C170.259 61.0199 171.433 59.7869 171.433 58.2358C171.433 56.3267 169.623 55.7102 168.569 55.4318L168.171 55.3224V51.7876C169.225 51.892 169.991 52.4588 170.1 53.3636H171.293C171.244 51.9119 169.971 50.8082 168.171 50.6889V49.5455H167.356V50.7038C165.651 50.8778 164.373 51.9616 164.373 53.5227C164.373 54.8949 165.367 55.7102 166.958 56.1676L167.356 56.282V60.0455C166.312 59.9361 165.457 59.3991 165.367 58.375H164.094C164.209 59.9411 165.402 61.0348 167.356 61.1641V62.2727ZM168.171 60.0455V56.5156L168.211 56.5256C169.285 56.8239 170.239 57.2017 170.239 58.2159C170.239 59.2152 169.374 59.9112 168.171 60.0455ZM167.356 55.1037C166.6 54.8899 165.566 54.4723 165.566 53.4631C165.566 52.603 166.262 51.9467 167.356 51.8026V55.1037ZM180.238 50.8182H179.005L176.459 52.5085V53.7614L178.945 52.1108H179.005V61H180.238V50.8182ZM182.886 61H189.309V59.9062H184.576V59.8267L186.863 57.3807C188.613 55.5064 189.13 54.6314 189.13 53.5028C189.13 51.9318 187.858 50.679 186.068 50.679C184.283 50.679 182.926 51.892 182.926 53.6818H184.099C184.099 52.5234 184.85 51.7528 186.028 51.7528C187.132 51.7528 187.977 52.429 187.977 53.5028C187.977 54.4425 187.425 55.1385 186.247 56.4261L182.886 60.1051V61ZM191.958 61.0795C192.45 61.0795 192.852 60.6768 192.852 60.1847C192.852 59.6925 192.45 59.2898 191.958 59.2898C191.465 59.2898 191.063 59.6925 191.063 60.1847C191.063 60.6768 191.465 61.0795 191.958 61.0795ZM197.804 50.6591C195.736 50.6392 194.403 52.1903 194.403 54.0795C194.403 56.0483 195.855 57.4602 197.605 57.4602C198.659 57.4602 199.554 56.9432 200.111 56.108H200.19C200.19 58.6136 199.216 60.0455 197.645 60.0455C196.571 60.0455 195.915 59.3693 195.696 58.4347H194.483C194.721 60.0455 195.934 61.1392 197.645 61.1392C199.932 61.1392 201.344 59.1108 201.344 55.4915C201.344 51.733 199.474 50.679 197.804 50.6591ZM197.804 51.7528C199.077 51.7528 200.011 52.8466 200.011 54.0597C200.011 55.2727 199.017 56.3665 197.764 56.3665C196.511 56.3665 195.596 55.3523 195.596 54.0795C195.596 52.7869 196.551 51.7528 197.804 51.7528ZM206.399 61.1392C208.458 61.1641 209.8 59.6129 209.8 57.7188C209.8 55.75 208.343 54.3381 206.598 54.3381C205.549 54.3381 204.649 54.8501 204.093 55.6903H204.013C204.018 53.1896 204.982 51.7528 206.558 51.7528C207.632 51.7528 208.279 52.429 208.507 53.3636H209.72C209.472 51.7628 208.269 50.6591 206.558 50.6591C204.267 50.6591 202.86 52.6875 202.86 56.3068C202.86 60.0703 204.729 61.1193 206.399 61.1392ZM206.399 60.0455C205.122 60.0455 204.187 58.9567 204.192 57.7386C204.197 56.5206 205.176 55.4318 206.439 55.4318C207.687 55.4318 208.607 56.456 208.607 57.7188C208.607 59.0114 207.647 60.0455 206.399 60.0455Z" fill="#757575"/>
<rect width="88" height="39" transform="translate(143 76)" fill="white"/>
<path d="M167.923 102.273H168.739V101.164C170.827 101.02 172 99.7869 172 98.2358C172 96.3267 170.19 95.7102 169.136 95.4318L168.739 95.3224V91.7876C169.793 91.892 170.558 92.4588 170.668 93.3636H171.861C171.811 91.9119 170.538 90.8082 168.739 90.6889V89.5455H167.923V90.7038C166.218 90.8778 164.94 91.9616 164.94 93.5227C164.94 94.8949 165.935 95.7102 167.525 96.1676L167.923 96.282V100.045C166.879 99.9361 166.024 99.3991 165.935 98.375H164.662C164.776 99.9411 165.969 101.035 167.923 101.164V102.273ZM168.739 100.045V96.5156L168.778 96.5256C169.852 96.8239 170.807 97.2017 170.807 98.2159C170.807 99.2152 169.942 99.9112 168.739 100.045ZM167.923 95.1037C167.168 94.8899 166.133 94.4723 166.133 93.4631C166.133 92.603 166.829 91.9467 167.923 91.8026V95.1037ZM180.805 90.8182H179.572L177.027 92.5085V93.7614L179.513 92.1108H179.572V101H180.805V90.8182ZM186.894 101.139C188.867 101.139 190.334 99.9013 190.334 98.2358C190.334 96.9432 189.568 96.0036 188.286 95.7898V95.7102C189.315 95.397 189.956 94.5518 189.956 93.4034C189.956 91.9616 188.818 90.679 186.934 90.679C185.174 90.679 183.712 91.7628 183.652 93.3636H184.845C184.89 92.3494 185.855 91.7528 186.914 91.7528C188.037 91.7528 188.763 92.4339 188.763 93.4631C188.763 94.5369 187.923 95.233 186.715 95.233H185.899V96.3267H186.715C188.261 96.3267 189.121 97.1122 189.121 98.2358C189.121 99.3146 188.181 100.045 186.874 100.045C185.696 100.045 184.761 99.4389 184.686 98.4545H183.434C183.508 100.055 184.92 101.139 186.894 101.139ZM192.648 101.08C193.14 101.08 193.543 100.677 193.543 100.185C193.543 99.6925 193.14 99.2898 192.648 99.2898C192.156 99.2898 191.753 99.6925 191.753 100.185C191.753 100.677 192.156 101.08 192.648 101.08ZM198.314 101.139C200.561 101.139 201.854 99.2351 201.854 95.9091C201.854 92.608 200.541 90.679 198.314 90.679C196.087 90.679 194.774 92.608 194.774 95.9091C194.774 99.2351 196.067 101.139 198.314 101.139ZM198.314 100.045C196.832 100.045 195.967 98.5589 195.967 95.9091C195.967 93.2642 196.842 91.7528 198.314 91.7528C199.786 91.7528 200.661 93.2642 200.661 95.9091C200.661 98.5589 199.796 100.045 198.314 100.045ZM203.508 101H204.8L209.334 91.9716V90.8182H202.812V91.9119H208.062V91.9915L203.508 101Z" fill="#757575"/>
<rect width="88" height="39" transform="translate(143 116)" fill="white"/>
<path d="M169.078 142.273H169.894V141.164C171.982 141.02 173.155 139.787 173.155 138.236C173.155 136.327 171.346 135.71 170.292 135.432L169.894 135.322V131.788C170.948 131.892 171.713 132.459 171.823 133.364H173.016C172.966 131.912 171.694 130.808 169.894 130.689V129.545H169.078V130.704C167.373 130.878 166.096 131.962 166.096 133.523C166.096 134.895 167.09 135.71 168.681 136.168L169.078 136.282V140.045C168.034 139.936 167.179 139.399 167.09 138.375H165.817C165.931 139.941 167.125 141.035 169.078 141.164V142.273ZM169.894 140.045V136.516L169.934 136.526C171.007 136.824 171.962 137.202 171.962 138.216C171.962 139.215 171.097 139.911 169.894 140.045ZM169.078 135.104C168.323 134.89 167.289 134.472 167.289 133.463C167.289 132.603 167.985 131.947 169.078 131.803V135.104ZM181.96 130.818H180.727L178.182 132.509V133.761L180.668 132.111H180.727V141H181.96V130.818ZM188.049 141.139C190.023 141.139 191.489 139.901 191.489 138.236C191.489 136.943 190.724 136.004 189.441 135.79V135.71C190.47 135.397 191.112 134.552 191.112 133.403C191.112 131.962 189.973 130.679 188.089 130.679C186.329 130.679 184.867 131.763 184.808 133.364H186.001C186.045 132.349 187.01 131.753 188.069 131.753C189.192 131.753 189.918 132.434 189.918 133.463C189.918 134.537 189.078 135.233 187.87 135.233H187.055V136.327H187.87C189.416 136.327 190.276 137.112 190.276 138.236C190.276 139.315 189.337 140.045 188.029 140.045C186.851 140.045 185.916 139.439 185.842 138.455H184.589C184.663 140.055 186.075 141.139 188.049 141.139ZM193.803 141.08C194.295 141.08 194.698 140.677 194.698 140.185C194.698 139.692 194.295 139.29 193.803 139.29C193.311 139.29 192.908 139.692 192.908 140.185C192.908 140.677 193.311 141.08 193.803 141.08ZM198.866 130.818H197.634L195.088 132.509V133.761L197.574 132.111H197.634V141H198.866V130.818ZM204.697 141.139C206.635 141.139 208.057 139.707 208.057 137.759C208.057 135.785 206.685 134.338 204.816 134.338C204.13 134.338 203.464 134.582 203.046 134.915H202.986L203.344 131.912H207.6V130.818H202.31L201.694 135.83L202.847 135.969C203.27 135.665 203.991 135.447 204.617 135.452C205.915 135.462 206.864 136.446 206.864 137.778C206.864 139.086 205.949 140.045 204.697 140.045C203.653 140.045 202.822 139.374 202.728 138.455H201.535C201.609 140.006 202.947 141.139 204.697 141.139Z" fill="#757575"/>
<path d="M143 156H231V187C231 191.418 227.418 195 223 195H143V156Z" fill="white"/>
<path d="M167.342 182.273H168.157V181.164C170.246 181.02 171.419 179.787 171.419 178.236C171.419 176.327 169.609 175.71 168.555 175.432L168.157 175.322V171.788C169.211 171.892 169.977 172.459 170.086 173.364H171.28C171.23 171.912 169.957 170.808 168.157 170.689V169.545H167.342V170.704C165.637 170.878 164.359 171.962 164.359 173.523C164.359 174.895 165.353 175.71 166.944 176.168L167.342 176.282V180.045C166.298 179.936 165.443 179.399 165.353 178.375H164.081C164.195 179.941 165.388 181.035 167.342 181.164V182.273ZM168.157 180.045V176.516L168.197 176.526C169.271 176.824 170.226 177.202 170.226 178.216C170.226 179.215 169.361 179.911 168.157 180.045ZM167.342 175.104C166.586 174.89 165.552 174.472 165.552 173.463C165.552 172.603 166.248 171.947 167.342 171.803V175.104ZM180.224 170.818H178.991L176.446 172.509V173.761L178.931 172.111H178.991V181H180.224V170.818ZM182.634 178.912H187.426V181H188.6V178.912H189.992V177.818H188.6V170.818H187.108L182.634 177.898V178.912ZM187.426 177.818H183.966V177.739L187.347 172.389H187.426V177.818ZM191.971 181.08C192.463 181.08 192.866 180.677 192.866 180.185C192.866 179.692 192.463 179.29 191.971 179.29C191.479 179.29 191.076 179.692 191.076 180.185C191.076 180.677 191.479 181.08 191.971 181.08ZM197.817 170.659C195.749 170.639 194.417 172.19 194.417 174.08C194.417 176.048 195.869 177.46 197.619 177.46C198.673 177.46 199.567 176.943 200.124 176.108H200.204C200.204 178.614 199.229 180.045 197.658 180.045C196.585 180.045 195.928 179.369 195.71 178.435H194.496C194.735 180.045 195.948 181.139 197.658 181.139C199.945 181.139 201.357 179.111 201.357 175.491C201.357 171.733 199.488 170.679 197.817 170.659ZM197.817 171.753C199.09 171.753 200.025 172.847 200.025 174.06C200.025 175.273 199.031 176.366 197.778 176.366C196.525 176.366 195.61 175.352 195.61 174.08C195.61 172.787 196.565 171.753 197.817 171.753ZM206.413 181.139C208.471 181.164 209.814 179.613 209.814 177.719C209.814 175.75 208.357 174.338 206.612 174.338C205.563 174.338 204.663 174.85 204.106 175.69H204.027C204.032 173.19 204.996 171.753 206.572 171.753C207.646 171.753 208.292 172.429 208.521 173.364H209.734C209.485 171.763 208.282 170.659 206.572 170.659C204.28 170.659 202.873 172.688 202.873 176.307C202.873 180.07 204.743 181.119 206.413 181.139ZM206.413 180.045C205.135 180.045 204.201 178.957 204.206 177.739C204.211 176.521 205.19 175.432 206.453 175.432C207.701 175.432 208.62 176.456 208.62 177.719C208.62 179.011 207.661 180.045 206.413 180.045Z" fill="#757575"/>
<path d="M256.59 120.59L261.17 116L256.59 111.41L258 110L264 116L258 122L256.59 120.59Z" fill="black"/>
<path d="M15.41 111.41L10.83 116L15.41 120.59L14 122L7.99997 116L14 110L15.41 111.41Z" fill="black"/>
</svg>
